<svg xmlns="http://www.w3.org/2000/svg" viewBox="-33 -321 665 938" width="48" height="48">
  <g transform="scale(1,-1) translate(0,-296)">
    <path d="M494 -243Q451 -243 423.5 -229.5Q396 -216 379.5 -195.0Q363 -174 354.5 -150.0Q346 -126 340 -106L289 82L139 -240H45L249 170L191 383Q180 424 161.5 446.0Q143 468 115 468Q108 468 99.5 466.5Q91 465 84 462V531Q95 534 110.5 536.5Q126 539 143 539Q196 539 223.0 509.0Q250 479 266 417L310 245L440 536H534L347 160L417 -79Q431 -126 451.5 -148.5Q472 -171 511 -171Q522 -171 533.5 -169.5Q545 -168 554 -167V-235Q543 -238 528.0 -240.5Q513 -243 494 -243Z" fill="currentColor"/>
  </g>
</svg>