<svg xmlns="http://www.w3.org/2000/svg" viewBox="250 -295 2100 1990" width="48" height="48">
  <g transform="scale(1,-1) translate(0,-1400)">
    <path d="M704 -120Q745 -18 767.0 56.0Q789 130 789 172Q789 231 752.5 271.0Q716 311 665 351Q612 393 556.5 449.0Q501 505 463.0 594.0Q425 683 425 824Q425 1045 529.5 1200.5Q634 1356 830.5 1438.0Q1027 1520 1301 1520Q1723 1520 1949.0 1335.0Q2175 1150 2175 798Q2175 655 2111.5 536.5Q2048 418 1931.5 332.0Q1815 246 1655.0 199.0Q1495 152 1303 152Q1285 152 1237.5 154.0Q1190 156 1158 160Q1087 32 971.5 -37.5Q856 -107 704 -120ZM852 742Q814 742 787.0 768.5Q760 795 760 833Q760 871 787.0 897.0Q814 923 852 923Q890 923 916.0 897.0Q942 871 942 833Q942 796 916.0 769.0Q890 742 852 742ZM764 -71Q899 -54 986.5 11.5Q1074 77 1136 204Q1151 201 1182.5 198.0Q1214 195 1248.0 193.5Q1282 192 1303 192Q1549 192 1736.5 269.0Q1924 346 2029.5 483.0Q2135 620 2135 798Q2135 1133 1921.5 1306.5Q1708 1480 1301 1480Q1037 1480 850.0 1403.0Q663 1326 564.0 1179.5Q465 1033 465 824Q465 694 499.5 611.0Q534 528 586.0 475.5Q638 423 690 382Q746 339 787.5 291.0Q829 243 829 172Q829 129 812.5 66.0Q796 3 764 -71ZM1306 742Q1269 742 1242.5 768.5Q1216 795 1216 833Q1216 871 1242.5 897.0Q1269 923 1306 923Q1344 923 1370.5 897.0Q1397 871 1397 833Q1397 795 1370.5 768.5Q1344 742 1306 742ZM1761 742Q1724 742 1697.5 769.0Q1671 796 1671 833Q1671 871 1697.5 897.0Q1724 923 1761 923Q1799 923 1826.0 897.0Q1853 871 1853 833Q1853 795 1826.0 768.5Q1799 742 1761 742Z" fill="currentColor"/>
  </g>
</svg>
