<svg xmlns="http://www.w3.org/2000/svg" viewBox="-62 -82 874 873" width="48" height="48">
  <g transform="scale(1,-1) translate(0,-709)">
    <path d="M11 342V367H143Q147 426 176.5 474.5Q206 523 254.5 552.5Q303 582 362 586V718H388V586Q447 582 495.5 552.5Q544 523 573.5 474.5Q603 426 607 367H739V342H607Q604 283 574.0 234.5Q544 186 495.5 156.0Q447 126 388 122V-9H362V122Q303 126 254.5 156.0Q206 186 176.0 234.5Q146 283 143 342ZM362 377V557Q311 553 269.5 527.5Q228 502 202.0 460.0Q176 418 172 367H352V342H172Q175 291 201.0 249.0Q227 207 269.0 181.0Q311 155 362 151V332H388V151Q439 155 481.0 181.0Q523 207 549.0 249.0Q575 291 578 342H398V367H578Q574 418 548.0 460.0Q522 502 480.5 527.5Q439 553 388 557V377Z" fill="currentColor"/>
  </g>
</svg>
