<svg xmlns="http://www.w3.org/2000/svg" viewBox="-56 -546 2712 2492" width="48" height="48">
  <g transform="scale(1,-1) translate(0,-1400)">
    <path d="M974 -320Q753 -320 617.0 -239.5Q481 -159 418.5 23.5Q356 206 356 512Q268 514 219.0 551.0Q170 588 170 653Q170 703 200.0 738.0Q230 773 293 796Q348 817 377.5 851.0Q407 885 429.0 924.5Q451 964 481 999L448 1498Q441 1595 497.0 1657.5Q553 1720 638 1720Q683 1720 719.5 1697.0Q756 1674 777 1639Q806 1677 846.5 1698.5Q887 1720 938 1720Q1022 1720 1067.0 1654.0Q1112 1588 1100 1492L1038 987Q1061 963 1084.0 935.5Q1107 908 1126 871Q1145 834 1168.5 814.0Q1192 794 1226 785Q1271 773 1299.5 743.0Q1328 713 1328 656Q1328 611 1302.5 574.0Q1277 537 1237.5 515.0Q1198 493 1155 493Q1146 493 1135.5 493.0Q1125 493 1114 494Q1121 353 1147.0 268.0Q1173 183 1220.0 145.0Q1267 107 1335 107Q1464 107 1561.5 119.0Q1659 131 1727.5 162.0Q1796 193 1839 250Q1864 283 1877.0 325.5Q1890 368 1905.0 422.5Q1920 477 1950 545Q1950 600 2013.0 644.0Q2076 688 2199 688Q2294 688 2362.0 652.0Q2430 616 2430 550Q2430 510 2401.0 467.0Q2372 424 2338 396Q2288 355 2269.0 325.0Q2250 295 2235.0 267.5Q2220 240 2180 205Q2159 186 2130.0 174.5Q2101 163 2073.5 154.0Q2046 145 2029 133Q2003 116 1973.5 75.5Q1944 35 1905.5 -7.5Q1867 -50 1813 -75Q1736 -111 1677.0 -123.5Q1618 -136 1564 -160Q1431 -219 1334.5 -254.5Q1238 -290 1154.0 -305.0Q1070 -320 974 -320ZM813 610Q763 610 728 648Q697 618 651 618Q624 618 599.0 632.0Q574 646 559 668L593 689Q607 670 621.5 664.0Q636 658 655 658Q694 658 733 694Q767 650 809 650Q828 650 841.0 654.5Q854 659 867 673L890 646Q878 630 857.0 620.0Q836 610 813 610ZM974 -280Q1041 -280 1098.0 -274.0Q1155 -268 1217.0 -251.0Q1279 -234 1358.0 -203.0Q1437 -172 1548 -123Q1577 -110 1613.5 -101.0Q1650 -92 1695.0 -78.5Q1740 -65 1796 -39Q1840 -18 1877.5 22.5Q1915 63 1947.0 104.0Q1979 145 2005 165Q2021 177 2050.5 187.5Q2080 198 2110.0 209.5Q2140 221 2156 235Q2187 262 2200.5 288.5Q2214 315 2235.5 348.0Q2257 381 2313 427Q2346 454 2368.0 489.0Q2390 524 2390 550Q2390 592 2337.5 620.0Q2285 648 2199 648Q2165 648 2136.0 643.5Q2107 639 2086 633Q2020 424 1906.5 289.5Q1793 155 1647.0 90.5Q1501 26 1336 26Q1243 26 1187.0 86.0Q1131 146 1106.5 260.5Q1082 375 1082 538Q1115 534 1130.0 533.5Q1145 533 1155 533Q1207 533 1247.5 571.0Q1288 609 1288 656Q1288 697 1269.0 718.5Q1250 740 1220.0 755.5Q1190 771 1157.0 791.0Q1124 811 1096 848L996 982L1060 1497Q1067 1550 1053.5 1591.5Q1040 1633 1010.5 1656.5Q981 1680 938 1680Q902 1680 870.0 1665.0Q838 1650 817.5 1620.0Q797 1590 795 1545L781 1043Q774 1045 767.5 1045.0Q761 1045 753 1045L755 1545Q755 1616 716.0 1648.0Q677 1680 636 1680Q595 1680 559.5 1657.0Q524 1634 504.0 1593.5Q484 1553 488 1500L526 991Q493 957 474.0 923.5Q455 890 436.5 860.0Q418 830 387.5 804.0Q357 778 300 758Q210 727 210 653Q210 602 247.0 577.0Q284 552 357 552Q375 552 398 557Q397 545 396.5 534.5Q396 524 396 512Q396 220 452.5 46.0Q509 -128 636.0 -204.0Q763 -280 974 -280ZM629 1441Q597 1441 597 1503Q597 1565 629 1565Q661 1565 661 1503Q661 1441 629 1441ZM1734 264V304Q1623 304 1536.5 359.5Q1450 415 1400.5 512.0Q1351 609 1351 732Q1351 840 1387.5 923.5Q1424 1007 1487.5 1054.5Q1551 1102 1633 1102Q1754 1102 1832.5 1014.0Q1911 926 1911 792Q1911 697 1866.0 630.0Q1821 563 1748 563Q1694 563 1657.0 608.5Q1620 654 1620 710Q1620 742 1633.0 780.5Q1646 819 1666 841L1637 870Q1612 841 1596.0 797.5Q1580 754 1580 710Q1580 632 1631.0 577.5Q1682 523 1756 523Q1840 523 1895.5 598.5Q1951 674 1951 792Q1951 895 1909.0 973.5Q1867 1052 1795.5 1097.0Q1724 1142 1633 1142Q1546 1142 1472.5 1090.0Q1399 1038 1355.0 945.5Q1311 853 1311 732Q1311 595 1367.0 489.5Q1423 384 1518.5 324.0Q1614 264 1734 264ZM1365 67 1143 168 1098 516 1195 526 1297 577 1287 716 1171 792 1007 988 1058 1384Q1093 1415 1182.5 1440.5Q1272 1466 1377 1466Q1530 1466 1662.5 1408.0Q1795 1350 1894.5 1247.5Q1994 1145 2050.0 1011.0Q2106 877 2106 725Q2106 680 2078.0 610.5Q2050 541 2006.0 464.0Q1962 387 1911.5 317.5Q1861 248 1816 203L1726 147ZM919 1441Q887 1441 887 1503Q887 1565 919 1565Q951 1565 951 1503Q951 1441 919 1441ZM1246 1310Q1264 1310 1295.0 1320.0Q1326 1330 1377 1330Q1416 1330 1435.5 1325.0Q1455 1320 1468 1320Q1476 1320 1482.0 1324.0Q1488 1328 1488 1336Q1488 1368 1377 1368Q1304 1368 1267.0 1354.5Q1230 1341 1230 1325Q1230 1318 1234.5 1314.0Q1239 1310 1246 1310Z" fill="currentColor"/>
  </g>
</svg>