<svg xmlns="http://www.w3.org/2000/svg" viewBox="121 -529 2358 2508" width="48" height="48">
  <g transform="scale(1,-1) translate(0,-1450)">
    <path d="M2117 -320Q2001 -320 1848.5 -297.0Q1696 -274 1526.0 -232.5Q1356 -191 1184.5 -136.5Q1013 -82 857.0 -18.5Q701 45 579 112H330V895L567 897Q589 928 631.5 965.5Q674 1003 755 1062Q832 1118 907.5 1183.0Q983 1248 1033.0 1327.0Q1083 1406 1083 1504Q1083 1546 1081.5 1583.5Q1080 1621 1080 1657Q1080 1709 1106.5 1739.5Q1133 1770 1185 1770Q1245 1770 1294.0 1730.0Q1343 1690 1372.0 1618.5Q1401 1547 1401 1453Q1401 1302 1311 1123H1529Q1584 1123 1665.5 1098.0Q1747 1073 1827.0 1028.5Q1907 984 1961.0 926.5Q2015 869 2015 804Q2015 746 1975 697Q2014 669 2040.0 630.0Q2066 591 2066 543Q2066 454 1992 397Q2006 375 2013.5 344.5Q2021 314 2021 282Q2021 197 1955.0 147.0Q1889 97 1734 92L2065 -31Q2175 -71 2222.5 -110.5Q2270 -150 2270 -203Q2270 -256 2227.5 -288.0Q2185 -320 2117 -320ZM2117 -280Q2169 -280 2199.5 -258.5Q2230 -237 2230 -203Q2230 -167 2189.0 -136.0Q2148 -105 2044 -66L1553 118V134Q1571 133 1595.5 133.0Q1620 133 1681 133Q1816 133 1898.5 168.5Q1981 204 1981 282Q1981 340 1957 381Q1860 413 1769.5 425.0Q1679 437 1559 437V477Q1685 477 1778.0 464.0Q1871 451 1960 421Q1992 444 2009.0 478.0Q2026 512 2026 543Q2026 607 1960.5 658.0Q1895 709 1788.0 741.5Q1681 774 1556 782V822Q1645 819 1746.5 793.5Q1848 768 1939 723Q1975 761 1975 804Q1975 859 1926.0 909.0Q1877 959 1804.0 998.5Q1731 1038 1656.0 1060.5Q1581 1083 1529 1083H1244Q1305 1192 1333.0 1280.0Q1361 1368 1361 1453Q1361 1577 1309.0 1653.5Q1257 1730 1185 1730Q1120 1730 1120 1657Q1120 1623 1121.5 1573.0Q1123 1523 1123 1504Q1123 1396 1069.0 1310.0Q1015 1224 935.5 1155.5Q856 1087 779 1030Q685 960 645.0 923.5Q605 887 590 857L370 855V152H589Q709 85 864.0 22.0Q1019 -41 1189.5 -96.0Q1360 -151 1529.5 -192.0Q1699 -233 1850.5 -256.5Q2002 -280 2117 -280Z" fill="currentColor"/>
  </g>
</svg>
