<svg xmlns="http://www.w3.org/2000/svg" viewBox="19 75 563 555" width="48" height="48">
  <g transform="scale(1,-1) translate(0,-705)">
    <path d="M300 463Q275 463 257.5 480.5Q240 498 240 523Q240 548 257.5 565.5Q275 583 300 583Q325 583 342.5 565.5Q360 548 360 523Q360 498 342.5 480.5Q325 463 300 463ZM126 122Q101 122 83.5 139.5Q66 157 66 182Q66 207 83.5 224.5Q101 242 126 242Q151 242 168.5 224.5Q186 207 186 182Q186 157 168.5 139.5Q151 122 126 122ZM475 122Q450 122 432.5 139.5Q415 157 415 182Q415 207 432.5 224.5Q450 242 475 242Q500 242 517.5 224.5Q535 207 535 182Q535 157 517.5 139.5Q500 122 475 122Z" fill="currentColor"/>
  </g>
</svg>
