<svg xmlns="http://www.w3.org/2000/svg" viewBox="32 -88 536 930" width="48" height="48">
  <g transform="scale(1,-1) translate(0,-755)">
    <path d="M276 -10Q221 -10 180.0 -1.5Q139 7 109 23V97Q140 82 186.5 68.0Q233 54 279 54Q350 54 378.5 76.5Q407 99 407 127Q407 147 398.0 163.0Q389 179 361.5 195.5Q334 212 280 233Q229 253 192.5 273.5Q156 294 136.5 323.0Q117 352 117 395Q117 444 142.0 474.5Q167 505 198 520Q161 539 140.5 568.5Q120 598 120 638Q120 697 169.5 731.0Q219 765 313 765Q369 765 407.5 755.5Q446 746 481 732L455 669Q423 684 390.5 692.0Q358 700 310 700Q251 700 226.5 683.5Q202 667 202 640Q202 612 228.0 591.0Q254 570 329 541Q405 513 447.5 477.5Q490 442 490 383Q490 333 466.5 300.5Q443 268 413 251Q449 232 469.0 203.0Q489 174 489 133Q489 65 433.0 27.5Q377 -10 276 -10ZM351 280Q375 294 396.0 315.5Q417 337 417 370Q417 395 403.5 415.0Q390 435 356.5 453.0Q323 471 262 490Q234 483 211.0 460.0Q188 437 188 405Q188 368 219.5 343.0Q251 318 330 288Z" fill="currentColor"/>
  </g>
</svg>
