<svg xmlns="http://www.w3.org/2000/svg" viewBox="0 0 512 512" width="512" height="512">
  <defs>
    <linearGradient id="bg" x1="0%" y1="0%" x2="100%" y2="100%">
      <stop offset="0%" stop-color="#6366f1"/>
      <stop offset="100%" stop-color="#a855f7"/>
    </linearGradient>
  </defs>

  <!-- Background rounded square -->
  <rect x="16" y="16" width="480" height="480" rx="96" fill="url(#bg)"/>

  <!-- ∮ contour integral glyph, scaled and centered, white fill -->
  <g transform="translate(130, 360) scale(0.31, -0.31)">
    <path d="M51 -211 81 -145Q104 -151 124.0 -154.5Q144 -158 162 -158Q205 -158 237.0 -133.5Q269 -109 293 -45Q319 23 337.5 122.5Q356 222 374 328Q393 438 413.5 543.0Q434 648 463 725Q496 812 550.5 852.5Q605 893 670 893Q698 893 727.0 886.0Q756 879 785 866L755 800Q733 806 712.5 809.5Q692 813 674 813Q631 813 599.0 788.5Q567 764 543 699Q516 629 496.5 527.5Q477 426 458 316Q440 210 420.5 108.0Q401 6 373 -69Q340 -156 285.5 -197.0Q231 -238 166 -238Q138 -238 109.0 -231.0Q80 -224 51 -211ZM418 137Q365 137 313.5 158.0Q262 179 229.0 221.5Q196 264 196 328Q196 392 229.0 434.5Q262 477 313.5 498.0Q365 519 418 519Q472 519 523.0 498.0Q574 477 606.5 434.5Q639 392 639 328Q639 264 606.5 221.5Q574 179 523.0 158.0Q472 137 418 137ZM418 202Q456 202 490.0 216.0Q524 230 546.0 258.0Q568 286 568 328Q568 370 546.0 398.0Q524 426 490.0 440.0Q456 454 418 454Q380 454 345.5 440.0Q311 426 289.0 398.0Q267 370 267 328Q267 286 289.0 258.0Q311 230 345.5 216.0Q380 202 418 202Z" fill="#ffffff"/>
  </g>
</svg>
