<svg xmlns="http://www.w3.org/2000/svg" viewBox="-35 -120 1034 1033" width="48" height="48">
  <g transform="scale(1,-1) translate(0,-793)">
    <path d="M805 -34Q790 -34 778 -24L615 138Q610 143 607.5 151.0Q605 159 605 166Q605 185 617 204L545 275Q505 244 456.5 228.5Q408 213 358 213Q293 213 237.0 237.0Q181 261 139.5 303.5Q98 346 74.5 401.5Q51 457 51 520Q51 584 75.0 639.5Q99 695 141.5 737.0Q184 779 239.5 803.0Q295 827 359 827Q424 827 479.5 803.0Q535 779 577.0 736.5Q619 694 642.5 638.5Q666 583 666 521Q666 472 650.5 423.0Q635 374 603 333L673 263Q694 272 712 272Q731 272 740 263L903 101Q913 91 913 73Q913 50 896.0 25.0Q879 0 854.0 -17.0Q829 -34 805 -34ZM359 277Q428 277 483.0 310.5Q538 344 570.0 399.5Q602 455 602 520Q602 587 569.0 642.0Q536 697 481.0 730.0Q426 763 359 763Q293 763 237.5 730.0Q182 697 148.5 642.0Q115 587 115 520Q115 453 148.0 398.0Q181 343 236.5 310.0Q292 277 359 277Z" fill="currentColor"/>
  </g>
</svg>